<svg width="17" height="13" viewBox="0 0 17 13" fill="none" xmlns="http://www.w3.org/2000/svg">
<path d="M1.49414 0.676758H15.5059C16.3297 0.676758 17 1.34703 17 2.1709V10.8297C17 11.6535 16.3297 12.3238 15.5059 12.3238H1.49414C0.670271 12.3238 0 11.6535 0 10.8297V2.1709C0 1.34703 0.670271 0.676758 1.49414 0.676758ZM1.68914 1.67285L1.88856 1.8389L7.90719 6.85061C8.25071 7.13663 8.74936 7.13663 9.09281 6.85061L15.1114 1.8389L15.3109 1.67285H1.68914ZM16.0039 2.39196L11.1001 6.47539L16.0039 9.73902V2.39196ZM1.49414 11.3277H15.5059C15.7465 11.3277 15.9478 11.1561 15.9939 10.9289L10.3014 7.14041L9.73018 7.61608C9.37377 7.91285 8.93685 8.06123 8.49997 8.06123C8.06308 8.06123 7.62619 7.91285 7.26976 7.61608L6.69853 7.14041L1.00605 10.9289C1.05221 11.1562 1.25348 11.3277 1.49414 11.3277ZM0.996094 9.73902L5.89993 6.47542L0.996094 2.39196V9.73902Z" fill="black"/>
</svg>
