<svg width="17" height="17" viewBox="0 0 17 17" fill="none" xmlns="http://www.w3.org/2000/svg">
<path d="M13.0032 7.2296V4.53742C13.0104 3.31927 12.5239 2.14798 11.6553 1.29383C10.8156 0.457706 9.71635 0 8.55226 0C8.53424 0 8.51262 0 8.4946 0C6.01145 0.00360399 3.99322 2.03625 3.99322 4.53742V7.2296C3.05619 7.34132 2.37143 8.12699 2.37143 9.07844V15.1259C2.37143 16.1531 3.19314 17 4.22027 17H12.7797C13.8069 17 14.6286 16.1531 14.6286 15.1259V9.07844C14.625 8.13059 13.9402 7.34132 13.0032 7.2296ZM4.71042 4.53742H4.71402C4.71402 2.43269 6.4115 0.709985 8.4982 0.709985H8.50181C9.4929 0.706381 10.4444 1.09922 11.1471 1.79839C11.8787 2.52279 12.286 3.51028 12.2788 4.53742V7.2332H11.4859V4.53742C11.4931 3.71931 11.1688 2.93364 10.5885 2.35701C10.0407 1.8092 9.29829 1.49926 8.52343 1.49926H8.50181C6.84398 1.49926 5.50329 2.86156 5.50329 4.53381V7.2332H4.71042V4.53742ZM10.7687 4.53742V7.2332H6.22769V4.53742C6.22769 3.26161 7.24402 2.22366 8.50541 2.22366H8.52704C9.11088 2.22366 9.6731 2.45792 10.0876 2.87238C10.5272 3.31206 10.7759 3.91393 10.7687 4.53742ZM13.9402 15.1367C13.9402 15.7674 13.4285 16.2792 12.7978 16.2792H4.23469C3.60399 16.2792 3.09223 15.7674 3.09223 15.1367V9.09646C3.09223 8.46576 3.60399 7.954 4.23469 7.954H12.7978C13.4285 7.954 13.9402 8.46576 13.9402 9.09646V15.1367Z" fill="black"/>
<path d="M9.74518 11.8928C9.5866 11.3342 9.07844 10.9521 8.4982 10.9521C7.781 10.9521 7.19716 11.5324 7.19716 12.2532C7.19716 12.8334 7.57918 13.3416 8.1378 13.5002V14.5093C8.1378 14.7075 8.29998 14.8697 8.4982 14.8697C8.69642 14.8697 8.8586 14.7075 8.8586 14.5093V13.5002C9.54696 13.3019 9.947 12.5811 9.74518 11.8928ZM8.4982 12.8298C8.17744 12.8298 7.91796 12.5703 7.91796 12.2496C7.91796 11.9288 8.17744 11.6693 8.4982 11.6693C8.81895 11.6693 9.07844 11.9288 9.07844 12.2496C9.07844 12.5703 8.81895 12.8298 8.4982 12.8298Z" fill="black"/>
</svg>
